<svg width="28" height="25" viewBox="0 0 28 25" fill="none" xmlns="http://www.w3.org/2000/svg">
<path d="M27.7691 19.0182C26.7717 17.2154 22.4102 16.0682 18.5548 15.8522C18.205 15.4797 17.8552 15.0849 17.4905 14.6752C14.1784 10.8835 12.8387 5.37843 12.3401 2.45828C12.2805 1.83999 12.2135 1.32598 12.1614 0.946067C12.1093 0.633194 12.0126 0 11.3576 0C11.1492 0 10.9408 0.0893921 10.7994 0.253278C10.5612 0.521454 10.5984 0.811979 10.6431 1.1472C10.6877 1.52712 10.7622 2.04112 10.8589 2.62962C11.1418 5.59446 11.2757 11.2336 8.99822 15.7107C8.76004 16.18 8.52187 16.6269 8.29115 17.0515C4.01895 18.2956 0.580352 20.508 0.0742383 22.3406C-0.111833 23.0036 0.0519097 23.6442 0.520809 24.1359C1.07158 24.7095 1.71911 25 2.44851 25C4.46552 25 6.76536 22.7503 9.28104 18.3179C10.4049 18.02 11.5139 17.8188 12.5931 17.7071C13.0099 17.6624 13.6872 17.573 14.104 17.5134C15.2502 17.3346 16.5527 17.2676 17.885 17.3123C20.9738 20.5304 23.5043 22.1544 25.3948 22.1544C26.4145 22.1544 27.2555 21.6552 27.7616 20.7539C28.0817 20.2026 28.0817 19.5843 27.7691 19.0182ZM2.44851 23.5101C2.13591 23.5101 1.86052 23.3835 1.60002 23.1079C1.48838 22.9961 1.46605 22.8993 1.51071 22.7354C1.77121 21.7893 3.95196 20.1728 7.14495 18.9958C5.33633 21.8415 3.61703 23.5101 2.44851 23.5101ZM13.8733 16.0459C13.4788 16.1055 12.8313 16.1874 12.4368 16.2321C11.7149 16.3066 10.9706 16.4184 10.2188 16.5673C10.2486 16.5077 10.2784 16.4407 10.3156 16.3811C11.432 14.1836 12.1242 11.5465 12.3847 8.5295C13.4118 11.3975 14.7441 13.7887 16.3666 15.6436C16.4113 15.6958 16.4634 15.7554 16.5081 15.815C15.5777 15.8448 14.692 15.9192 13.8733 16.0459ZM26.4666 20.0313C26.221 20.4708 25.8712 20.6719 25.365 20.6719C24.1816 20.6719 22.3656 19.5545 20.1848 17.4985C23.5564 17.9231 26.0275 18.9437 26.4666 19.7408C26.5261 19.8525 26.5261 19.9195 26.4666 20.0313Z" fill="#185A97"/>
</svg>
