<svg width="116" height="116" viewBox="0 0 116 116" fill="none" xmlns="http://www.w3.org/2000/svg">
<rect width="116" height="116" rx="20" fill="#D1E9FF"/>
<path d="M85.9297 59.0512C85.4894 59.0512 85.0752 58.7552 84.9224 58.3329C84.7741 57.9182 84.9025 57.4326 85.2357 57.1505C85.4283 56.9871 85.6759 56.8962 85.9342 56.8962C86.1345 56.8962 86.3286 56.9517 86.4952 57.0549C86.8651 57.2862 87.0638 57.7502 86.9782 58.1818C86.8804 58.6781 86.4295 59.0512 85.9297 59.0512Z" fill="#185A97"/>
<path d="M66.3053 78.9644C65.7153 78.9644 65.2354 78.4804 65.2354 77.8854C65.2354 77.2904 65.7153 76.8063 66.3053 76.8063H72.5828C73.1728 76.8063 73.6528 77.2904 73.6528 77.8854C73.6528 78.4804 73.1728 78.9644 72.5828 78.9644H66.3053Z" fill="#185A97"/>
<path d="M66.3053 83.6875C65.7153 83.6875 65.2354 83.2034 65.2354 82.6084C65.2354 82.0134 65.7153 81.5294 66.3053 81.5294H72.5828C73.1728 81.5294 73.6528 82.0134 73.6528 82.6084C73.6528 83.2034 73.1728 83.6875 72.5828 83.6875H66.3053Z" fill="#185A97"/>
<path d="M66.3053 58.8494C65.7153 58.8494 65.2354 58.3654 65.2354 57.7703C65.2354 57.1753 65.7153 56.6913 66.3053 56.6913H72.5828C73.1728 56.6913 73.6528 57.1753 73.6528 57.7703C73.6528 58.3654 73.1728 58.8494 72.5828 58.8494H66.3053Z" fill="#185A97"/>
<path d="M45.5552 62.0157C44.9652 62.0157 44.4852 61.5316 44.4852 60.9366V58.8494H42.4157C41.8257 58.8494 41.3457 58.3654 41.3457 57.7704C41.3457 57.1754 41.8257 56.6913 42.4157 56.6913H44.4852V54.6041C44.4852 54.0091 44.9652 53.5251 45.5552 53.5251C46.1452 53.5251 46.6251 54.0091 46.6251 54.6041V56.6913H48.6947C48.9805 56.6913 49.2496 56.8039 49.4513 57.0073C49.6531 57.2108 49.7647 57.4821 49.7647 57.7704C49.7647 58.3654 49.2847 58.8494 48.6947 58.8494H46.6251V60.9366C46.6251 61.5316 46.1452 62.0157 45.5552 62.0157Z" fill="#185A97"/>
<path d="M47.7749 83.7446C47.4891 83.7446 47.2201 83.6321 47.0183 83.4286L45.5555 81.9534L44.0928 83.4286C43.891 83.6321 43.622 83.7446 43.3362 83.7446C43.0503 83.7446 42.7813 83.6321 42.5796 83.4286C42.1623 83.0078 42.1623 82.3234 42.5796 81.9025L44.0423 80.4273L42.5796 78.9521C42.1623 78.5313 42.1623 77.8468 42.5796 77.426C42.7813 77.2225 43.0503 77.11 43.3362 77.11C43.622 77.11 43.891 77.2225 44.0928 77.426L45.5555 78.9012L47.0183 77.426C47.2201 77.2225 47.4891 77.11 47.7749 77.11C48.0607 77.11 48.3298 77.2225 48.5315 77.426C48.7333 77.6295 48.8449 77.9008 48.8449 78.1891C48.8449 78.4773 48.7333 78.7486 48.5315 78.9521L47.0688 80.4273L48.5315 81.9025C48.9488 82.3234 48.9488 83.0078 48.5315 83.4286C48.3298 83.6321 48.0607 83.7446 47.7749 83.7446Z" fill="#185A97"/>
<path d="M60.3937 89.8628C59.8037 89.8628 59.3237 89.3788 59.3237 88.7838V72.0708C59.3237 71.4758 59.8037 70.9917 60.3937 70.9917H78.4957C79.0857 70.9917 79.5656 71.4758 79.5656 72.0708V88.7838C79.5656 89.072 79.454 89.3433 79.2523 89.5468C79.0505 89.7503 78.7815 89.8628 78.4957 89.8628H60.3937ZM61.4636 87.7047H77.4257V73.1499H61.4636V87.7047Z" fill="#185A97"/>
<path d="M36.505 89.8628C35.915 89.8628 35.4351 89.3788 35.4351 88.7838V72.0708C35.4351 71.4758 35.915 70.9917 36.505 70.9917H54.6055C55.1955 70.9917 55.6754 71.4758 55.6754 72.0708V88.7838C55.6754 89.072 55.5638 89.3433 55.3621 89.5468C55.1603 89.7503 54.8913 89.8628 54.6055 89.8628H36.505ZM37.575 87.7047H53.5355V73.1499H37.575V87.7047Z" fill="#185A97"/>
<path d="M60.3937 67.2058C59.8037 67.2058 59.3237 66.7218 59.3237 66.1267V49.4138C59.3237 48.8188 59.8037 48.3347 60.3937 48.3347H78.4957C79.0857 48.3347 79.5656 48.8188 79.5656 49.4138V66.1267C79.5656 66.415 79.454 66.6863 79.2523 66.8898C79.0505 67.0933 78.7815 67.2058 78.4957 67.2058H60.3937ZM61.4636 65.0477H77.4257V50.4928H61.4636V65.0477Z" fill="#185A97"/>
<path d="M36.505 67.2058C35.915 67.2058 35.4351 66.7218 35.4351 66.1267V49.4138C35.4351 48.8188 35.915 48.3347 36.505 48.3347H54.6055C55.1955 48.3347 55.6754 48.8188 55.6754 49.4138V66.1267C55.6754 66.415 55.5638 66.6863 55.3621 66.8898C55.1603 67.0933 54.8913 67.2058 54.6055 67.2058H36.505ZM37.575 65.0477H53.5355V50.4928H37.575V65.0477Z" fill="#185A97"/>
<path d="M36.505 41.8342C35.915 41.8342 35.4351 41.3502 35.4351 40.7552V27.2162C35.4351 26.6212 35.915 26.1371 36.505 26.1371H78.4959C79.0859 26.1371 79.5658 26.6212 79.5658 27.2162V40.7552C79.5658 41.3502 79.0859 41.8342 78.4959 41.8342H36.505ZM37.575 39.6761H77.4259V28.2952H37.575V39.6761Z" fill="#185A97"/>
<path d="M31.9848 97C29.7883 97 28 95.1964 28 92.9813V23.0187C28 20.8036 29.7883 19 31.9848 19H83.0137C85.2117 19 87 20.8036 87 23.0187V51.0309C87 51.6259 86.5201 52.1099 85.93 52.1099C85.34 52.1099 84.8601 51.6259 84.8601 51.0309V23.0187C84.8601 21.9921 84.0317 21.1581 83.0152 21.1581H31.9848C30.9683 21.1581 30.1399 21.9936 30.1399 23.0187V92.9798C30.1399 94.0064 30.9683 94.8404 31.9848 94.8404H83.0137C84.0317 94.8404 84.8586 94.0049 84.8586 92.9798V64.9691C84.8586 64.3741 85.3385 63.8901 85.9285 63.8901C86.5185 63.8901 86.9985 64.3741 86.9985 64.9691V92.9813C86.9985 95.198 85.2101 97 83.0121 97H31.9848Z" fill="#185A97"/>
</svg>
