<svg xmlns="http://www.w3.org/2000/svg" width="116" height="116" fill="none" viewBox="0 0 116 116"><rect width="116" height="116" fill="#D1E9FF" rx="20"/><path fill="#185A97" d="M68.8184 100.504C68.2946 100.504 67.8678 100.079 67.8678 99.5576V96.6915C67.8678 94.9394 68.4596 93.2126 69.5343 91.8278C70.3539 90.7714 70.8062 89.4543 70.8062 88.1203V72.3254C70.8062 71.2335 69.9135 70.3464 68.8167 70.3464C67.7199 70.3464 66.8271 71.2352 66.8271 72.3254V78.1203C66.8271 78.6417 66.4003 79.0666 65.8766 79.0666C65.3528 79.0666 64.926 78.6417 64.926 78.1203V67.2772C64.926 66.1852 64.0332 65.2965 62.9364 65.2965C61.8396 65.2965 60.9469 66.1852 60.9469 67.2772V73.072C60.9469 73.5934 60.52 74.0183 59.9963 74.0183C59.4726 74.0183 59.0457 73.5934 59.0457 73.072V63.033C59.0457 61.9411 58.1547 61.0523 57.0579 61.0523C55.9611 61.0523 55.0683 61.9411 55.0683 63.033V68.8279L55.0666 68.8719L55.0683 68.9176C55.0819 69.439 54.667 69.8741 54.1433 69.8893H54.1092C53.6042 69.8893 53.1825 69.4763 53.1689 68.9684L52.5465 45.9261C52.5312 45.398 52.2778 44.9189 51.8493 44.6141L51.8289 44.5989L51.8068 44.587C51.7201 44.543 51.6351 44.4973 51.5517 44.4465L51.5279 44.433L51.5024 44.4228C51.3001 44.3416 51.0875 44.3009 50.8681 44.3009C49.9431 44.3009 49.1898 45.0509 49.1898 45.9718V75.139C49.1898 75.6605 48.7629 76.0854 48.2392 76.0854C47.7155 76.0854 47.2886 75.6605 47.2886 75.139V67.4363L46.6816 68.2066C45.6273 69.544 45.0695 71.1539 45.0695 72.8604V78.4707C45.0695 78.9921 44.6427 79.417 44.1189 79.417C43.5952 79.417 43.1684 78.9921 43.1684 78.4707V72.8604C43.1684 70.382 44.1257 68.0407 45.8636 66.2665L47.2886 64.8106V54.7327H33.4314C30.9879 54.7327 29 52.7537 29 50.3209V47.8933C29 47.3719 29.4268 46.947 29.9506 46.947C30.4743 46.947 30.9011 47.3719 30.9011 47.8933V50.3226C30.9011 51.7108 32.0354 52.84 33.4314 52.84H47.2954V45.9702C47.2954 44.6632 48.0147 43.4629 49.1728 42.8366L49.5724 42.6199L44.9624 38.0321C44.2584 37.3312 43.8707 36.3984 43.8707 35.4081C43.8707 34.4177 44.2584 33.4849 44.9624 32.7841C45.6647 32.0849 46.6016 31.6989 47.5981 31.6989C48.5946 31.6989 49.5316 32.0849 50.2339 32.7841L53.492 36.0277L57.2704 32.2677C57.449 32.09 57.6888 31.9901 57.9421 31.9901C58.1955 31.9901 58.4353 32.0883 58.6138 32.2677C58.7924 32.4472 58.8927 32.6842 58.8927 32.9364C58.8927 33.1887 58.7941 33.4274 58.6138 33.6051L54.1654 38.0338C53.9851 38.2115 53.747 38.3114 53.4937 38.3114C53.2437 38.3114 52.9988 38.2098 52.822 38.0338L48.8922 34.1215C48.547 33.7778 48.0896 33.5899 47.5998 33.5899C47.1118 33.5899 46.6527 33.7795 46.3092 34.1215C45.964 34.4651 45.7752 34.9205 45.7752 35.4064C45.7752 35.8922 45.9657 36.3493 46.3092 36.6913L52.2013 42.5572C52.2676 42.6233 52.3407 42.6842 52.4258 42.7452L52.4479 42.7621L52.4734 42.7739C52.5737 42.823 52.6706 42.8772 52.7625 42.9331L52.788 42.9483L52.8152 42.9585C53.0311 43.0448 53.259 43.0888 53.4937 43.0888C53.9817 43.0888 54.4408 42.8992 54.786 42.5556L67.6501 29.7504C68.3609 29.041 68.3609 27.8881 67.6501 27.1788C67.305 26.8352 66.8475 26.6472 66.3595 26.6472C65.8714 26.6472 65.4123 26.8369 65.0671 27.1788L62.4144 29.8215C62.2341 30.0009 61.9961 30.0991 61.7427 30.0991C61.4893 30.0991 61.2496 30.0009 61.071 29.8215C60.8908 29.642 60.7921 29.405 60.7921 29.1528C60.7921 28.9005 60.8908 28.6618 61.071 28.4841L63.722 25.8448C64.4243 25.1456 65.3613 24.7596 66.3578 24.7596C67.3543 24.7596 68.2912 25.1456 68.9935 25.8448C70.4457 27.2906 70.4457 29.6454 68.9935 31.0928L56.1294 43.8997C55.7026 44.3246 55.1754 44.6429 54.6058 44.819L54.3099 44.9104L54.3745 45.2117C54.4221 45.4335 54.4476 45.6553 54.4544 45.8754L54.7469 56.7134L56.8589 58.8143C57.0834 59.0378 57.3827 59.1613 57.7024 59.1613C58.0203 59.1613 58.3196 59.0378 58.5441 58.8143L63.637 53.744C64.2237 53.1633 65.0008 52.8417 65.8238 52.8417H81.5754C82.9697 52.8417 84.104 51.7125 84.104 50.3243V19.41C84.104 18.0219 82.9697 16.8927 81.5754 16.8927H33.4314C32.0354 16.8927 30.9011 18.0219 30.9011 19.41V42.1543C30.9011 42.6757 30.4743 43.1007 29.9506 43.1007C29.4268 43.1007 29 42.6757 29 42.1543V19.41C29 16.9773 30.9879 15 33.4314 15H81.5703C84.0121 15 86 16.9773 86 19.41V50.3209C86 52.752 84.0138 54.731 81.5703 54.731H65.8187C65.5024 54.731 65.2015 54.8546 64.9753 55.0797L59.782 60.2499L59.9912 60.4886C60.6102 61.1945 60.952 62.0985 60.952 63.0313V63.9117L61.4247 63.7119C61.9042 63.5087 62.4144 63.4055 62.9398 63.4055C65.0841 63.4055 66.8305 65.1424 66.8305 67.2789V68.9616L67.3032 68.7618C67.7845 68.5587 68.2946 68.4554 68.8184 68.4554C70.9627 68.4554 72.7091 70.1924 72.7091 72.3271V88.122C72.7091 89.8725 72.1173 91.6009 71.0409 92.9857C70.2213 94.0421 69.7689 95.3592 69.7689 96.6932V99.5593C69.7689 100.079 69.3421 100.504 68.8184 100.504Z"/><path fill="#185A97" d="M49.3969 101C48.8731 101 48.4463 100.575 48.4463 100.054V97.6141C48.4463 95.2711 47.5926 93.0111 46.0452 91.2487C44.1934 89.1394 43.1748 86.4375 43.1748 83.6374C43.1748 83.116 43.6016 82.6911 44.1254 82.6911C44.6491 82.6911 45.0759 83.116 45.0759 83.6374C45.0759 85.9787 45.9296 88.2404 47.477 90.0028C49.3288 92.1104 50.3474 94.814 50.3474 97.6141V100.054C50.3474 100.575 49.9206 101 49.3969 101Z"/></svg>