<svg xmlns="http://www.w3.org/2000/svg" width="28" height="28" fill="none" viewBox="0 0 28 28"><path fill="#D1E9FF" d="M13.9019 0.102051C6.22436 0.102051 0 6.37351 0 14.1092C0 21.0471 5.01191 26.7936 11.5833 27.9059V17.0315H8.22956V13.1181H11.5833V10.2329C11.5833 6.88488 13.6129 5.0601 16.5773 5.0601C17.9974 5.0601 19.2175 5.16664 19.5716 5.21362V8.71349L17.5154 8.71458C15.9033 8.71458 15.5926 9.48601 15.5926 10.6191V13.1165H19.4387L18.9371 17.0299H15.5926V27.9999C22.4709 27.1563 27.8033 21.264 27.8033 14.1053C27.8038 6.3735 21.58 0.102051 13.9019 0.102051Z"/></svg>