<svg width="116" height="116" viewBox="0 0 116 116" fill="none" xmlns="http://www.w3.org/2000/svg">
<rect width="116" height="116" rx="20" fill="#D1E9FF"/>
<g clip-path="url(#clip0)">
<path d="M90.0247 25H41.1298C39.4874 25.0013 38.1554 26.3033 38.1541 27.9088V41.0919L35.9182 37.8128C34.8952 36.3036 32.8357 35.8505 31.2508 36.7862L26.6504 39.4905C25.1433 40.354 24.0384 41.7563 23.5679 43.3992C21.8886 49.3718 23.1331 59.6622 38.5848 74.7689C50.8735 86.7677 60.0346 90 66.3485 90C67.8104 90.0067 69.2669 89.8209 70.6782 89.4479C72.3588 88.9867 73.792 87.908 74.6782 86.4375L77.4406 81.9366C78.3938 80.3873 77.9302 78.3795 76.3903 77.3796L65.3748 70.2026C63.8637 69.2254 61.8384 69.5475 60.7211 70.9404L57.5143 74.9708C57.1792 75.4026 56.5707 75.5282 56.0866 75.2662L55.4766 74.9374C53.4677 73.868 50.9692 72.5352 45.9203 67.5999C45.3747 67.0665 44.8796 66.5666 44.4146 66.088H90.0247C91.663 66.0893 92.9936 64.794 93.0004 63.1926V27.9088C92.999 26.3033 91.6671 25.0013 90.0247 25ZM54.3607 76.9398L54.9542 77.258C56.4448 78.0721 58.3197 77.6951 59.3591 76.3704L62.5659 72.34C62.9311 71.8855 63.5902 71.7813 64.0825 72.0994L75.098 79.2765C75.5985 79.6027 75.749 80.255 75.4399 80.759L72.6775 85.2598C72.1004 86.2263 71.1636 86.9375 70.0628 87.2449C64.5461 88.7274 54.8927 87.4735 40.2396 73.1488C25.5864 58.8241 24.3078 49.3905 25.8216 44.0034C26.1348 42.9273 26.8623 42.0116 27.8511 41.4475L32.4556 38.7459C32.9711 38.4451 33.6385 38.5922 33.9722 39.0801L41.3185 49.8477C41.644 50.3289 41.5374 50.9746 41.0724 51.3302L36.9479 54.4662C35.594 55.4821 35.207 57.3148 36.0399 58.7719L36.3667 59.3521C37.5332 61.4441 38.9842 64.0468 44.2724 69.2147C49.5593 74.3799 52.2219 75.7996 54.3607 76.9398ZM90.6674 63.1926C90.6633 63.5361 90.3761 63.8115 90.026 63.8088H42.31C40.7948 62.1152 39.4874 60.253 38.4153 58.2599L38.0789 57.6611C37.8108 57.1879 37.9394 56.5943 38.3797 56.2668L42.5042 53.1308C43.9305 52.0387 44.2587 50.0589 43.2591 48.5818L40.4857 44.514V27.9088C40.4844 27.7417 40.5514 27.5813 40.6717 27.4636C40.792 27.346 40.9575 27.2805 41.1271 27.2819H90.0233C90.1942 27.2805 90.3583 27.346 90.4787 27.4636C90.599 27.5813 90.666 27.7417 90.6647 27.9088L90.6674 63.1926Z" fill="#185A97"/>
<path d="M86.0052 30.2816L66.5028 44.74C65.9503 45.1317 65.2036 45.1317 64.6525 44.74L45.1556 30.2816C44.6414 29.9006 43.9097 29.9995 43.52 30.5008C43.1302 31.0034 43.2314 31.7186 43.7443 32.0996L63.2426 46.5567C64.6292 47.5579 66.5233 47.5579 67.91 46.5567L87.4151 32.0996C87.6613 31.9164 87.824 31.6451 87.8664 31.3456C87.9088 31.0462 87.8267 30.7414 87.6394 30.5008C87.2496 29.9995 86.5194 29.9019 86.0052 30.2816Z" fill="#185A97"/>
<path d="M55.6186 46.6528L43.6636 59.1663C43.2246 59.6274 43.2506 60.3493 43.7211 60.7784C44.1928 61.2075 44.9313 61.1821 45.3703 60.7222L57.3253 48.2035C57.7205 47.7383 57.674 47.0512 57.2214 46.6395C56.7673 46.2278 56.0644 46.2331 55.6186 46.6528Z" fill="#185A97"/>
<path d="M75.6135 46.6528C75.1745 46.1916 74.4361 46.1663 73.9643 46.5967C73.4925 47.0258 73.4665 47.7476 73.9068 48.2088L85.8577 60.7222C86.2967 61.1834 87.0352 61.2088 87.507 60.7784C87.9787 60.3493 88.0047 59.6274 87.5644 59.1663L75.6135 46.6528Z" fill="#185A97"/>
</g>
<defs>
<clipPath id="clip0">
<rect width="70" height="65" fill="white" transform="translate(23 25)"/>
</clipPath>
</defs>
</svg>
