<svg width="28" height="28" viewBox="0 0 28 28" fill="none" xmlns="http://www.w3.org/2000/svg">
<path d="M13.8814 0.0273438C6.21624 0.0273438 0 6.2906 0 14.0137C0 21.7368 6.21624 28 13.8814 28C21.5465 28 27.7627 21.7368 27.7627 14.0137C27.7627 6.2906 21.547 0.0273438 13.8814 0.0273438ZM9.84762 21.1708H6.46676V10.923H9.84762V21.1708ZM8.15746 9.5233H8.13523C7.00087 9.5233 6.2672 8.73657 6.2672 7.75316C6.2672 6.74734 7.02363 5.98247 8.17969 5.98247C9.33574 5.98247 10.0477 6.74734 10.0699 7.75316C10.0699 8.73657 9.33629 9.5233 8.15746 9.5233ZM22.0383 21.1708H18.6579V15.6882C18.6579 14.3103 18.1683 13.3706 16.945 13.3706C16.0113 13.3706 15.4549 14.0044 15.2104 14.6163C15.1209 14.8354 15.0992 15.1413 15.0992 15.4473V21.1708H11.7189C11.7189 21.1708 11.7634 11.884 11.7189 10.923H15.0992V12.3741C15.5487 11.6759 16.3523 10.6826 18.1461 10.6826C20.3703 10.6826 22.0383 12.1474 22.0383 15.2949V21.1708Z" fill="#D1E9FF"/>
</svg>
