<svg xmlns="http://www.w3.org/2000/svg" xmlns:xlink="http://www.w3.org/1999/xlink" id="Layer_1" x="0" y="0" version="1.1" viewBox="0 0 260.4 105.88" style="enable-background:new 0 0 260.4 105.88" xml:space="preserve"><style type="text/css">.st0{fill:#fff}</style><g><g><rect width="8.32" height="8.32" x="39.38" y="37.34" class="st0"/><path d="M67.45,52.17c1.32-0.79,2.42-1.75,3.29-2.95c1.27-1.77,1.95-3.72,1.78-5.9c-0.04-0.53-0.09-0.59,0.36-0.59 c3.62,0.01,10.88,0.01,11.72,0c0,13.17,0.02,40.43,0.01,40.8c-14.65-0.05-44.78-0.1-45.23-0.09c0.03-3.7,0.02-8.56,0-12.26 c0.55-0.01,14.99-0.08,22.15-0.29c2.96-0.09,5.74-0.92,8-2.96c4.04-3.65,4-10.41-0.04-14.2C68.88,53.15,68.2,52.65,67.45,52.17z" class="st0"/><path d="M23.6,42.76c0-6.8,0.01-13.6-0.01-20.41c13.62,0.05,27.24,0.08,40.86,0.09c-0.03,4.05-0.04,8.31-0.01,12.36 c0,0.57-0.14,0.48-0.67,0.38c-1.37-0.26-2.76-0.34-4.15-0.33c-7.52,0.02-15.59,0.04-23.11,0.04c-0.03,0.73-0.08,10.17-0.09,14.8 c0.01,4.3,0.02,9.16,0.04,13.46c-0.56,0.01-12.88,0-12.88,0S23.6,49.37,23.6,42.76z" class="st0"/><path d="M48.97,37.42c0.34,0.39,0.51,0.68,0.64,1c0.53,1.31,1.08,2.61,1.76,3.86c0.2,0.36,0.41,0.71,0.71,1 c0.51,0.48,1.04,0.61,1.67,0.19c0.55-0.37,1.12-0.7,1.81-1.14c-0.18,0.92-0.33,1.73-0.49,2.53c-0.38,1.88-0.76,3.76-1.13,5.64 c-0.05,0.26-0.2,0.56,0.14,0.73c0.34,0.17,0.56-0.07,0.75-0.3c0.88-1.11,1.76-2.22,2.65-3.33c0.11-0.14,0.23-0.27,0.41-0.48 c0.15,0.45,0.28,0.83,0.41,1.2c0.38,1.04,0.56,1.14,1.62,0.88c1.06-0.26,2.12-0.52,3.29-0.81c-0.38,1.28-0.74,2.47-1.1,3.65 c-0.52,1.72-0.41,1.95,1.25,2.61c0.16,0.07,0.36,0.13,0.7,0.28c-1.25,1.21-2.66,2.55-3.93,3.78c-0.21,0.21-0.42,0.42-0.63,0.63 c-0.92,0.92-1.24,1.85-0.62,3.17c0.2,0.43,0.32,0.8,0.51,1.29c-1.29-0.17-2.5-0.34-3.72-0.5c-1.47-0.2-2.94-0.42-4.42-0.6 c-0.85-0.11-1.1,0.1-1.09,0.95c0,1.42,0.07,3.52,0.11,4.94c-0.37,0,0.08,0-0.52,0c-0.46,0-0.17,0-0.79,0 c0.03-4.53,0.02-9.7,0.02-14.23c0-5.37,0-10.74,0-16.11C48.97,38.03,48.97,37.81,48.97,37.42z" class="st0"/><rect width="8.32" height="21.47" x="39.38" y="47.2" class="st0"/></g><g><path d="M98.56,45.28h5.74v23.29h-5.74V45.28z" class="st0"/><path d="M109.48,68.57V37.08h5.09c2.95,0,5.11,0.19,6.48,0.56c1.94,0.5,3.48,1.43,4.63,2.78 c1.15,1.36,1.72,2.95,1.72,4.79c0,1.2-0.26,2.29-0.78,3.26c-0.52,0.98-1.37,1.89-2.54,2.75c1.97,0.9,3.4,2.02,4.32,3.37 c0.91,1.35,1.36,2.94,1.36,4.78c0,1.77-0.47,3.38-1.41,4.84c-0.94,1.46-2.15,2.54-3.64,3.26c-1.48,0.72-3.53,1.08-6.15,1.08 H109.48z M115.64,42.8v6.63h1.35c1.5,0,2.62-0.31,3.35-0.92c0.73-0.61,1.09-1.45,1.09-2.5c0-0.98-0.35-1.77-1.04-2.34 c-0.69-0.58-1.75-0.87-3.16-0.87H115.64z M115.64,54.78v8.07h1.55c2.56,0,4.29-0.31,5.18-0.94c0.89-0.63,1.34-1.54,1.34-2.74 c0-1.36-0.52-2.43-1.57-3.21c-1.05-0.78-2.78-1.18-5.21-1.18H115.64z" class="st0"/><path d="M133.66,45.22c0,0,4.55,0,4.92,0c0,0.98,0,1.96,0,2.93c0.84-2.2,2.21-3.41,4.56-3.72 c0.1-0.01,1.32-0.13,1.59-0.09c0,0,0,5.47,0,5.48c0,0.01-0.93,0.05-1.08,0.06c-0.42,0.03-0.86,0.18-1.26,0.31 c-0.42,0.14-0.81,0.36-1.15,0.64c-1.87,1.56-1.9,4.41-1.9,6.63c0,0.16,0,0.33,0,0.49c0,0,0.02,1.13,0.02,1.13v9.42h-5.7 C133.66,68.51,133.66,45.22,133.66,45.22z" class="st0"/><path d="M146.65,45.28h5.74v23.29h-5.74V45.28z" class="st0"/><path d="M175.07,36.29h6v32.28h-6v-2.46c-1.17,1.08-2.35,1.87-3.53,2.34s-2.46,0.72-3.83,0.72 c-3.09,0-5.76-1.17-8.02-3.5c-2.25-2.33-3.38-5.23-3.38-8.7c0-3.6,1.09-6.54,3.27-8.84c2.18-2.3,4.83-3.45,7.95-3.45 c1.43,0,2.78,0.26,4.04,0.79c1.26,0.53,2.42,1.32,3.49,2.38V36.29z M168.76,50.07c-1.86,0-3.4,0.64-4.62,1.92 c-1.23,1.28-1.84,2.91-1.84,4.91c0,2.01,0.62,3.67,1.87,4.97c1.25,1.3,2.79,1.95,4.61,1.95c1.89,0,3.45-0.64,4.69-1.92 c1.24-1.28,1.86-2.95,1.86-5.02c0-2.03-0.62-3.67-1.86-4.92C172.23,50.7,170.66,50.07,168.76,50.07z" class="st0"/><path d="M202.89,45.28h5.97v19.95c0,3.94-0.81,6.83-2.43,8.69c-2.18,2.51-5.46,3.77-9.85,3.77 c-2.34,0-4.31-0.29-5.9-0.86c-1.59-0.57-2.94-1.41-4.04-2.51c-1.1-1.11-1.91-2.45-2.43-4.04h6.6c0.59,0.66,1.34,1.15,2.26,1.49 c0.92,0.34,2.01,0.5,3.27,0.5c1.61,0,2.9-0.24,3.88-0.73c0.98-0.49,1.67-1.11,2.07-1.88c0.4-0.77,0.6-2.1,0.6-3.98 c-1.05,1.03-2.16,1.77-3.31,2.22c-1.16,0.45-2.46,0.67-3.93,0.67c-3.2,0-5.91-1.13-8.12-3.38c-2.21-2.25-3.31-5.11-3.31-8.56 c0-3.7,1.17-6.66,3.51-8.9c2.12-2.03,4.65-3.04,7.59-3.04c1.37,0,2.67,0.25,3.89,0.74c1.22,0.49,2.45,1.3,3.67,2.43V45.28z M196.68,50.14c-1.89,0-3.44,0.62-4.67,1.85c-1.23,1.23-1.84,2.79-1.84,4.66c0,1.94,0.63,3.53,1.89,4.77 c1.26,1.24,2.84,1.86,4.74,1.86c1.86,0,3.39-0.61,4.6-1.82c1.21-1.21,1.81-2.8,1.81-4.77c0-1.94-0.61-3.52-1.82-4.73 C200.16,50.75,198.6,50.14,196.68,50.14z" class="st0"/><path d="M236.8,58.4h-19.13c0.28,1.69,1.01,3.03,2.21,4.03c1.2,1,2.79,1.41,4.65,1.41c2.22,0,4.19-0.87,5.37-2.67 c0,0,6.04-0.02,6.05-0.02c0.07,0-1.06,2.19-1.17,2.4c-0.46,0.8-1.18,1.73-1.89,2.4c-2.44,2.3-5.11,3.22-8.37,3.22 c-3.72,0-6.75-1.18-9.1-3.53c-2.34-2.35-3.51-5.3-3.51-8.83c0-3.63,1.17-6.63,3.5-9.03c2.33-2.39,5.26-3.59,8.78-3.59 c3.74,0,6.78,1.2,9.12,3.59c2.34,2.4,3.51,5.56,3.51,9.49L236.8,58.4z M230.85,53.71c-0.39-1.32-1.17-2.4-2.33-3.23 c-1.16-0.83-2.5-1.24-4.03-1.24c-1.66,0-3.12,0.47-4.37,1.4c-0.79,0.58-1.51,1.61-2.18,3.08H230.85z" class="st0"/><rect width="5.75" height="5.19" x="98.55" y="37.48" class="st0"/><rect width="5.75" height="5.19" x="146.64" y="37.48" class="st0"/></g><g><path d="M105.46,76.96h-5.02v5.07h5.02V80.3l1.86,0.39v0.95c0,0.72-0.13,1.22-0.4,1.49c-0.28,0.27-0.81,0.4-1.58,0.4 h-4.77c-0.77,0-1.29-0.13-1.58-0.4c-0.27-0.27-0.4-0.77-0.4-1.49v-4.21c0-0.72,0.13-1.21,0.4-1.49c0.28-0.27,0.81-0.41,1.58-0.41 h4.77c0.77,0,1.3,0.14,1.58,0.41c0.27,0.27,0.4,0.77,0.4,1.49v0.76l-1.86,0.3V76.96z" class="st0"/><path d="M111.28,83.53l4.5-8h1.8l4.58,8h-2.09l-0.96-1.75h-5.06l-0.93,1.75H111.28z M114.86,80.33h3.5l-1.73-3.25 L114.86,80.33z" class="st0"/><path d="M127.21,83.53v-8h6.83c0.63,0,1.09,0.12,1.4,0.36c0.28,0.24,0.42,0.64,0.42,1.19v1.78 c0,0.54-0.14,0.93-0.42,1.18c-0.3,0.25-0.76,0.37-1.4,0.37h-5v3.11H127.21z M133.22,76.91h-4.18v2.12h4.18 c0.33,0,0.55-0.05,0.67-0.14c0.11-0.09,0.17-0.26,0.17-0.5v-0.85c0-0.24-0.06-0.4-0.17-0.5 C133.77,76.96,133.54,76.91,133.22,76.91z" class="st0"/><path d="M141.07,83.53v-8h1.86l0.02,8H141.07z" class="st0"/><path d="M153.2,76.96v6.57h-1.86v-6.57h-3.67v-1.43h9.22v1.43H153.2z" class="st0"/><path d="M159.23,83.53l4.5-8h1.8l4.58,8h-2.09l-0.96-1.75H162l-0.93,1.75H159.23z M162.8,80.33h3.5l-1.73-3.25 L162.8,80.33z" class="st0"/><path d="M174.65,83.53v-8h1.86v6.49h6v1.5H174.65z" class="st0"/></g></g></svg>