<svg width="116" height="116" viewBox="0 0 116 116" fill="none" xmlns="http://www.w3.org/2000/svg">
<rect width="116" height="116" rx="20" fill="#D1E9FF"/>
<path d="M41.7703 94C41.3719 94 41.0016 93.7829 40.8017 93.4324L35.0267 83.277H33.1957C28.6758 83.277 25 79.5452 25 74.9564V47.3579C25 42.7705 28.6758 39.0372 33.1957 39.0372H47.5131C48.1295 39.0372 48.6313 39.5466 48.6313 40.1724C48.6313 40.7982 48.1295 41.3076 47.5131 41.3076H33.1957C29.9099 41.3076 27.2362 44.022 27.2362 47.3579V74.9564C27.2362 78.2923 29.9099 81.0067 33.1957 81.0067H35.6724C36.0707 81.0067 36.4411 81.2238 36.6409 81.5743L41.7703 90.5945L46.8996 81.5743C47.0981 81.2238 47.4698 81.0067 47.8681 81.0067H80.2598C83.5456 81.0067 86.2193 78.2923 86.2193 74.9564V46.393L74.8062 66.4626C74.7279 66.6002 74.6245 66.718 74.4973 66.8116L65.5734 73.4296C65.3805 73.5729 65.1527 73.6481 64.9137 73.6481C64.7181 73.6481 64.5238 73.5956 64.3547 73.4963C63.9717 73.2721 63.7551 72.8379 63.8012 72.3909L63.9088 71.3764H37.2992C36.6829 71.3764 36.1811 70.867 36.1811 70.2412C36.1811 69.6155 36.6829 69.1061 37.2992 69.1061H64.1478L64.8103 62.8627H37.2992C36.6829 62.8627 36.1811 62.3533 36.1811 61.7276C36.1811 61.1018 36.6829 60.5924 37.2992 60.5924H65.2394L68.7894 54.3491H37.2992C36.6829 54.3491 36.1811 53.8397 36.1811 53.2139C36.1811 52.5882 36.6829 52.0787 37.2992 52.0787H70.0808L76.2066 41.3076H60.0919C59.4755 41.3076 58.9738 40.7982 58.9738 40.1724C58.9738 39.5466 59.4755 39.0372 60.0919 39.0372H77.4981L85.575 24.8336C86.5701 23.0869 88.4276 22 90.4234 22C91.3976 22 92.3605 22.2625 93.2075 22.7591C95.8756 24.3228 96.7925 27.7992 95.2523 30.508L87.6799 43.8233L87.7386 43.9553C88.2068 45.0167 88.4542 46.1944 88.4542 47.3593V74.9578C88.4542 79.5452 84.7784 83.2785 80.2584 83.2785H48.5139L42.7388 93.4338C42.539 93.7829 42.1686 94 41.7703 94ZM66.2946 70.0837L71.7901 66.0071L67.0242 63.2132L66.2946 70.0837ZM67.6238 60.9443L73.4281 64.3469L91.2592 32.9883L85.4548 29.5857L67.6238 60.9443ZM90.4192 24.2703C89.2229 24.2703 88.1089 24.9216 87.5121 25.9702L86.5743 27.6204L92.3787 31.0231L93.3165 29.3728C94.2404 27.7481 93.6897 25.6637 92.0894 24.7258C91.5807 24.4278 91.0034 24.2703 90.4192 24.2703Z" fill="#185A97"/>
<path d="M53.8027 41.309C53.5092 41.309 53.2213 41.1869 53.0117 40.9755C52.8048 40.7655 52.686 40.4732 52.686 40.1738C52.686 39.8744 52.8048 39.5821 53.0117 39.3707C53.2199 39.1593 53.5078 39.0387 53.8027 39.0387C54.0963 39.0387 54.3856 39.1607 54.5952 39.3721C54.8035 39.5835 54.9223 39.8758 54.9223 40.1738C54.9223 40.4718 54.8035 40.7655 54.5952 40.9769C54.3842 41.1869 54.0963 41.309 53.8027 41.309Z" fill="black"/>
</svg>
